<?xml version="1.0" standalone="no"?>
<!DOCTYPE svg PUBLIC "-//W3C//DTD SVG 20010904//EN"
 "http://www.w3.org/TR/2001/REC-SVG-20010904/DTD/svg10.dtd">
<svg version="1.0" xmlns="http://www.w3.org/2000/svg"
 width="297.000000pt" height="104.000000pt" viewBox="0 0 297.000000 104.000000"
 preserveAspectRatio="xMidYMid meet">
<metadata>
Created by potrace 1.16, written by Peter Selinger 2001-2019
</metadata>
<g transform="translate(0.000000,104.000000) scale(0.100000,-0.100000)"
fill="#000000" stroke="none">
<path d="M0 520 l0 -520 860 0 861 0 -23 31 c-21 28 -23 43 -26 175 l-3 144
55 0 56 0 0 -135 c0 -132 0 -135 25 -151 32 -21 77 -7 86 27 4 13 7 77 8 142
l1 117 55 0 55 0 0 -107 c-1 -124 -10 -174 -40 -215 l-21 -28 96 0 95 0 -21
21 c-31 31 -59 99 -59 145 0 64 45 142 99 171 82 43 203 21 251 -47 l20 -28
-44 -17 c-43 -17 -43 -17 -69 9 -51 51 -128 24 -143 -52 -9 -43 3 -99 27 -123
30 -30 92 -26 118 7 l21 27 40 -18 c22 -10 40 -23 40 -28 0 -6 -12 -24 -27
-39 l-27 -28 62 0 62 0 0 175 0 175 55 0 55 0 0 -140 0 -140 75 0 75 0 0 -35
0 -35 110 0 110 0 0 520 0 520 -1485 0 -1485 0 0 -520z"/>
</g>
</svg>
