<?xml version="1.0" standalone="no"?>
<!DOCTYPE svg PUBLIC "-//W3C//DTD SVG 20010904//EN"
 "http://www.w3.org/TR/2001/REC-SVG-20010904/DTD/svg10.dtd">
<svg version="1.0" xmlns="http://www.w3.org/2000/svg"
 width="297.000000pt" height="104.000000pt" viewBox="0 0 297.000000 104.000000"
 preserveAspectRatio="xMidYMid meet">
<metadata>
Created by potrace 1.16, written by Peter Selinger 2001-2019
</metadata>
<g transform="translate(0.000000,104.000000) scale(0.100000,-0.100000)"
fill="#000000" stroke="none">
<path d="M0 520 l0 -520 1485 0 1485 0 0 520 0 520 -1485 0 -1485 0 0 -520z
m2860 130 l0 -250 -30 0 -30 0 0 75 c0 68 -2 75 -20 75 -17 0 -20 -8 -23 -72
l-3 -73 -2 82 c-2 78 -1 81 19 76 18 -5 20 -2 15 28 -3 19 -8 61 -12 94 -9 85
-16 95 -69 95 -44 0 -45 0 -51 -40 -4 -22 -11 -43 -15 -46 -5 -3 -9 -35 -9
-71 0 -60 2 -65 20 -60 19 5 20 1 18 -81 l-2 -87 -3 78 c-3 69 -6 77 -23 77
-18 0 -20 -7 -20 -75 l0 -76 -132 3 -133 3 -3 248 -2 247 255 0 255 0 0 -250z
m-2700 -400 c0 -47 4 -64 20 -80 16 -16 25 -18 40 -10 17 9 20 21 20 80 0 63
2 70 20 70 18 0 20 -7 20 -79 0 -71 -2 -82 -22 -95 -30 -22 -81 -20 -109 3
-20 16 -24 30 -27 95 -4 72 -3 76 17 76 19 0 21 -6 21 -60z m260 -1 l45 -60 3
61 c2 44 7 60 17 60 12 0 15 -19 15 -95 0 -117 -9 -121 -77 -32 l-48 62 -3
-63 c-3 -53 -6 -63 -20 -60 -14 3 -17 18 -20 96 -3 90 -2 92 20 92 16 0 36
-18 68 -61z m648 45 c25 -17 29 -56 7 -74 -12 -10 -11 -17 10 -51 30 -47 30
-49 6 -49 -11 0 -28 15 -41 35 -27 44 -40 44 -40 0 0 -28 -4 -35 -20 -35 -19
0 -20 7 -20 95 l0 95 38 0 c21 0 48 -7 60 -16z m488 -19 c10 -19 21 -35 24
-35 4 0 14 16 23 35 11 24 24 35 38 35 20 0 20 -2 -10 -55 -20 -36 -31 -68
-31 -95 0 -33 -3 -40 -20 -40 -16 0 -20 7 -20 35 0 37 -61 158 -68 137 -2 -7
-14 -12 -27 -12 -23 0 -24 -3 -27 -77 -3 -72 -5 -78 -25 -81 -22 -3 -23 -1
-23 77 0 80 0 81 -25 81 -16 0 -25 6 -25 15 0 12 18 15 98 15 l99 0 19 -35z
m339 10 c18 -17 25 -35 25 -64 0 -53 -7 -69 -41 -86 -87 -45 -172 30 -135 119
25 59 107 76 151 31z m810 -5 c27 -26 34 -75 14 -112 -13 -25 -68 -48 -114
-48 l-35 0 0 96 0 96 55 -4 c40 -3 62 -11 80 -28z"/>
</g>
</svg>
